<?xml version="1.0" encoding="UTF-8"?>
<!DOCTYPE svg PUBLIC "-//W3C//DTD SVG 1.1//EN" "http://www.w3.org/Graphics/SVG/1.1/DTD/svg11.dtd">
<!-- Creator: CorelDRAW 2017 -->
<svg xmlns="http://www.w3.org/2000/svg" xml:space="preserve" width="18.535mm" height="21.2244mm" version="1.1" shape-rendering="geometricPrecision" text-rendering="geometricPrecision" image-rendering="optimizeQuality" fill-rule="evenodd" clip-rule="evenodd"
viewBox="0 0 287.96 329.74"
 xmlns:xlink="http://www.w3.org/1999/xlink">
 <g id="Layer_x0020_1">
  <metadata id="CorelCorpID_0Corel-Layer"/>
  <path fill="#373435" d="M188.77 192.23c4.91,8.69 2.88,49.05 2.12,62.01 -0.56,9.56 -1.22,20.46 -6.15,27.2 -4.05,5.54 -11.98,11.1 -12.47,20.77 -1.04,20.54 20.58,24.92 39.3,26.46 22.71,1.87 69.29,4.51 75.57,-23.32 2.72,-12.03 -1.66,-19 -7.44,-24.34 -6.8,-6.27 -9.72,-9.13 -11.12,-22.36 -1.07,-10.13 -1.69,-20.75 -2.24,-31.02 -2.24,-41.97 -3.02,-87.21 -0.39,-129.15 1.4,-22.33 1.54,-37.86 12.61,-53.52 5.36,-7.59 9.04,-12.82 8.18,-25.32 -2.36,-34.01 -52.87,-15.18 -67.83,-7.5 -15.86,8.13 -21.56,19.05 -28.71,37.99 -6.93,18.37 -27.66,82.5 -34.98,97.8 -1.63,3.41 -3.92,7.63 -8.6,7.73 -4.77,0.1 -6.23,-5.03 -8.16,-8.75 -10.68,-20.66 -20.31,-45.07 -32.28,-67.79 -11.66,-22.15 -9.6,-31.49 -36.98,-25.78 -16.4,3.42 -35.79,10.96 -48.4,18.38 -7.69,4.53 -12.9,8.29 -16.84,15.88 -5.38,10.37 -2.89,18.5 5.67,22.67 11.06,5.39 13.3,2.25 15.81,17.54 4.43,26.95 0.57,142.05 -5.26,157.79 -4.49,12.14 -24.79,9.96 -19.22,28.18 6.02,19.69 51.43,16.4 66,12.74 15.22,-3.82 24.84,-14.17 19.66,-27.04 -3.24,-8.04 -13.95,-7.45 -16.96,-16.42 -3.48,-10.35 -2.27,-72.34 0.35,-78.42 2.43,-5.63 6.95,-3.43 9.39,0.64 3.39,5.68 19.83,51.69 23.18,60.55 5.6,14.82 12.12,33.75 19.27,46.77 5.56,10.12 12.43,7.26 17.77,-3.73 9.46,-19.44 30.06,-94.26 39.36,-110.38 2.12,-3.67 4.45,-7.31 9.78,-6.29z"/>
 </g>
</svg>
